  0
SECTION
  2
HEADER
  9
$ACADVER
  1
AC1024
  9
$ACADMAINTVER
 70
6
  9
$DWGCODEPAGE
  3
ANSI_1252
  9
$LASTSAVEDBY
  1
ezdxf
  9
$INSBASE
 10
0.0
 20
0.0
 30
0.0
  9
$EXTMIN
 10
1e+20
 20
1e+20
 30
1e+20
  9
$EXTMAX
 10
-1e+20
 20
-1e+20
 30
-1e+20
  9
$LIMMIN
 10
0.0
 20
0.0
  9
$LIMMAX
 10
420.0
 20
297.0
  9
$ORTHOMODE
 70
0
  9
$REGENMODE
 70
1
  9
$FILLMODE
 70
1
  9
$QTEXTMODE
 70
0
  9
$MIRRTEXT
 70
1
  9
$LTSCALE
 40
1.0
  9
$ATTMODE
 70
1
  9
$TEXTSIZE
 40
2.5
  9
$TRACEWID
 40
1.0
  9
$TEXTSTYLE
  7
Standard
  9
$CLAYER
  8
0
  9
$CELTYPE
  6
ByLayer
  9
$CECOLOR
 62
256
  9
$CELTSCALE
 40
1.0
  9
$DISPSILH
 70
0
  9
$DIMSCALE
 40
1.0
  9
$DIMASZ
 40
2.5
  9
$DIMEXO
 40
0.625
  9
$DIMDLI
 40
3.75
  9
$DIMRND
 40
0.0
  9
$DIMDLE
 40
0.0
  9
$DIMEXE
 40
1.25
  9
$DIMTP
 40
0.0
  9
$DIMTM
 40
0.0
  9
$DIMTXT
 40
2.5
  9
$DIMCEN
 40
2.5
  9
$DIMTSZ
 40
0.0
  9
$DIMTOL
 70
0
  9
$DIMLIM
 70
0
  9
$DIMTIH
 70
0
  9
$DIMTOH
 70
0
  9
$DIMSE1
 70
0
  9
$DIMSE2
 70
0
  9
$DIMTAD
 70
1
  9
$DIMZIN
 70
8
  9
$DIMBLK
  1

  9
$DIMASO
 70
1
  9
$DIMSHO
 70
1
  9
$DIMPOST
  1

  9
$DIMAPOST
  1

  9
$DIMALT
 70
0
  9
$DIMALTD
 70
3
  9
$DIMALTF
 40
0.03937007874
  9
$DIMLFAC
 40
1.0
  9
$DIMTOFL
 70
1
  9
$DIMTVP
 40
0.0
  9
$DIMTIX
 70
0
  9
$DIMSOXD
 70
0
  9
$DIMSAH
 70
0
  9
$DIMBLK1
  1

  9
$DIMBLK2
  1

  9
$DIMSTYLE
  2
ISO-25
  9
$DIMCLRD
 70
0
  9
$DIMCLRE
 70
0
  9
$DIMCLRT
 70
0
  9
$DIMTFAC
 40
1.0
  9
$DIMGAP
 40
0.625
  9
$DIMJUST
 70
0
  9
$DIMSD1
 70
0
  9
$DIMSD2
 70
0
  9
$DIMTOLJ
 70
0
  9
$DIMTZIN
 70
8
  9
$DIMALTZ
 70
0
  9
$DIMALTTZ
 70
0
  9
$DIMUPT
 70
0
  9
$DIMDEC
 70
2
  9
$DIMTDEC
 70
2
  9
$DIMALTU
 70
2
  9
$DIMALTTD
 70
3
  9
$DIMTXSTY
  7
Standard
  9
$DIMAUNIT
 70
0
  9
$DIMADEC
 70
0
  9
$DIMALTRND
 40
0.0
  9
$DIMAZIN
 70
0
  9
$DIMDSEP
 70
44
  9
$DIMATFIT
 70
3
  9
$DIMFRAC
 70
0
  9
$DIMLDRBLK
  1

  9
$DIMLUNIT
 70
2
  9
$DIMLWD
 70
-2
  9
$DIMLWE
 70
-2
  9
$DIMTMOVE
 70
0
  9
$DIMFXL
 40
1.0
  9
$DIMFXLON
 70
0
  9
$DIMJOGANG
 40
0.785398163397
  9
$DIMTFILL
 70
0
  9
$DIMTFILLCLR
 70
0
  9
$DIMARCSYM
 70
0
  9
$DIMLTYPE
  6

  9
$DIMLTEX1
  6

  9
$DIMLTEX2
  6

  9
$DIMTXTDIRECTION
 70
0
  9
$LUNITS
 70
2
  9
$LUPREC
 70
4
  9
$SKETCHINC
 40
1.0
  9
$FILLETRAD
 40
10.0
  9
$AUNITS
 70
0
  9
$AUPREC
 70
2
  9
$MENU
  1
.
  9
$ELEVATION
 40
0.0
  9
$PELEVATION
 40
0.0
  9
$THICKNESS
 40
0.0
  9
$LIMCHECK
 70
0
  9
$CHAMFERA
 40
0.0
  9
$CHAMFERB
 40
0.0
  9
$CHAMFERC
 40
0.0
  9
$CHAMFERD
 40
0.0
  9
$SKPOLY
 70
0
  9
$TDCREATE
 40
2460936.8729976853
  9
$TDUCREATE
 40
2458532.153996898
  9
$TDUPDATE
 40
2460936.8729976853
  9
$TDUUPDATE
 40
2458532.1544311
  9
$TDINDWG
 40
0.0
  9
$TDUSRTIMER
 40
0.0
  9
$USRTIMER
 70
1
  9
$ANGBASE
 50
0.0
  9
$ANGDIR
 70
0
  9
$PDMODE
 70
0
  9
$PDSIZE
 40
0.0
  9
$PLINEWID
 40
0.0
  9
$SPLFRAME
 70
0
  9
$SPLINETYPE
 70
6
  9
$SPLINESEGS
 70
8
  9
$HANDSEED
  5
38
  9
$SURFTAB1
 70
6
  9
$SURFTAB2
 70
6
  9
$SURFTYPE
 70
6
  9
$SURFU
 70
6
  9
$SURFV
 70
6
  9
$UCSBASE
  2

  9
$UCSNAME
  2

  9
$UCSORG
 10
0.0
 20
0.0
 30
0.0
  9
$UCSXDIR
 10
1.0
 20
0.0
 30
0.0
  9
$UCSYDIR
 10
0.0
 20
1.0
 30
0.0
  9
$UCSORTHOREF
  2

  9
$UCSORTHOVIEW
 70
0
  9
$UCSORGTOP
 10
0.0
 20
0.0
 30
0.0
  9
$UCSORGBOTTOM
 10
0.0
 20
0.0
 30
0.0
  9
$UCSORGLEFT
 10
0.0
 20
0.0
 30
0.0
  9
$UCSORGRIGHT
 10
0.0
 20
0.0
 30
0.0
  9
$UCSORGFRONT
 10
0.0
 20
0.0
 30
0.0
  9
$UCSORGBACK
 10
0.0
 20
0.0
 30
0.0
  9
$PUCSBASE
  2

  9
$PUCSNAME
  2

  9
$PUCSORG
 10
0.0
 20
0.0
 30
0.0
  9
$PUCSXDIR
 10
1.0
 20
0.0
 30
0.0
  9
$PUCSYDIR
 10
0.0
 20
1.0
 30
0.0
  9
$PUCSORTHOREF
  2

  9
$PUCSORTHOVIEW
 70
0
  9
$PUCSORGTOP
 10
0.0
 20
0.0
 30
0.0
  9
$PUCSORGBOTTOM
 10
0.0
 20
0.0
 30
0.0
  9
$PUCSORGLEFT
 10
0.0
 20
0.0
 30
0.0
  9
$PUCSORGRIGHT
 10
0.0
 20
0.0
 30
0.0
  9
$PUCSORGFRONT
 10
0.0
 20
0.0
 30
0.0
  9
$PUCSORGBACK
 10
0.0
 20
0.0
 30
0.0
  9
$USERI1
 70
0
  9
$USERI2
 70
0
  9
$USERI3
 70
0
  9
$USERI4
 70
0
  9
$USERI5
 70
0
  9
$USERR1
 40
0.0
  9
$USERR2
 40
0.0
  9
$USERR3
 40
0.0
  9
$USERR4
 40
0.0
  9
$USERR5
 40
0.0
  9
$WORLDVIEW
 70
1
  9
$SHADEDGE
 70
3
  9
$SHADEDIF
 70
70
  9
$TILEMODE
 70
1
  9
$MAXACTVP
 70
64
  9
$PINSBASE
 10
0.0
 20
0.0
 30
0.0
  9
$PLIMCHECK
 70
0
  9
$PEXTMIN
 10
1e+20
 20
1e+20
 30
1e+20
  9
$PEXTMAX
 10
-1e+20
 20
-1e+20
 30
-1e+20
  9
$PLIMMIN
 10
0.0
 20
0.0
  9
$PLIMMAX
 10
420.0
 20
297.0
  9
$UNITMODE
 70
0
  9
$VISRETAIN
 70
1
  9
$PLINEGEN
 70
0
  9
$PSLTSCALE
 70
1
  9
$TREEDEPTH
 70
3020
  9
$CMLSTYLE
  2
Standard
  9
$CMLJUST
 70
0
  9
$CMLSCALE
 40
20.0
  9
$PROXYGRAPHICS
 70
1
  9
$MEASUREMENT
 70
1
  9
$CELWEIGHT
370
-1
  9
$ENDCAPS
280
0
  9
$JOINSTYLE
280
0
  9
$LWDISPLAY
290
0
  9
$INSUNITS
 70
6
  9
$HYPERLINKBASE
  1

  9
$STYLESHEET
  1

  9
$XEDIT
290
1
  9
$CEPSNTYPE
380
0
  9
$PSTYLEMODE
290
1
  9
$FINGERPRINTGUID
  2
{4B86449D-F0AC-4C96-9AB7-ACB318A30C7C}
  9
$VERSIONGUID
  2
{05EC0A9D-6EF4-43C4-8971-EC393B7BB743}
  9
$EXTNAMES
290
1
  9
$PSVPSCALE
 40
0.0
  9
$OLESTARTUP
290
0
  9
$SORTENTS
280
127
  9
$INDEXCTL
280
0
  9
$HIDETEXT
280
1
  9
$XCLIPFRAME
280
1
  9
$HALOGAP
280
0
  9
$OBSCOLOR
 70
257
  9
$OBSLTYPE
280
0
  9
$INTERSECTIONDISPLAY
280
0
  9
$INTERSECTIONCOLOR
 70
257
  9
$DIMASSOC
280
2
  9
$PROJECTNAME
  1

  9
$CAMERADISPLAY
290
0
  9
$LENSLENGTH
 40
50.0
  9
$CAMERAHEIGHT
 40
0.0
  9
$STEPSPERSEC
 40
24.0
  9
$STEPSIZE
 40
100.0
  9
$3DDWFPREC
 40
2.0
  9
$PSOLWIDTH
 40
0.005
  9
$PSOLHEIGHT
 40
0.08
  9
$LOFTANG1
 40
1.570796326795
  9
$LOFTANG2
 40
1.570796326795
  9
$LOFTMAG1
 40
0.0
  9
$LOFTMAG2
 40
0.0
  9
$LOFTPARAM
 70
7
  9
$LOFTNORMALS
280
1
  9
$LATITUDE
 40
37.795
  9
$LONGITUDE
 40
-122.394
  9
$NORTHDIRECTION
 40
0.0
  9
$TIMEZONE
 70
-8000
  9
$LIGHTGLYPHDISPLAY
280
1
  9
$TILEMODELIGHTSYNCH
280
1
  9
$CMATERIAL
347
20
  9
$SOLIDHIST
280
0
  9
$SHOWHIST
280
1
  9
$DWFFRAME
280
2
  9
$DGNFRAME
280
2
  9
$REALWORLDSCALE
290
1
  9
$INTERFERECOLOR
 62
256
  9
$CSHADOW
280
0
  9
$SHADOWPLANELOCATION
 40
0.0
  0
ENDSEC
  0
SECTION
  2
CLASSES
  0
CLASS
  1
ACDBDICTIONARYWDFLT
  2
AcDbDictionaryWithDefault
  3
ObjectDBX Classes
 90
0
 91
0
280
0
281
0
  0
CLASS
  1
SUN
  2
AcDbSun
  3
SCENEOE
 90
1153
 91
0
280
0
281
0
  0
CLASS
  1
VISUALSTYLE
  2
AcDbVisualStyle
  3
ObjectDBX Classes
 90
4095
 91
0
280
0
281
0
  0
CLASS
  1
MATERIAL
  2
AcDbMaterial
  3
ObjectDBX Classes
 90
1153
 91
0
280
0
281
0
  0
CLASS
  1
SCALE
  2
AcDbScale
  3
ObjectDBX Classes
 90
1153
 91
0
280
0
281
0
  0
CLASS
  1
TABLESTYLE
  2
AcDbTableStyle
  3
ObjectDBX Classes
 90
4095
 91
0
280
0
281
0
  0
CLASS
  1
MLEADERSTYLE
  2
AcDbMLeaderStyle
  3
ACDB_MLEADERSTYLE_CLASS
 90
4095
 91
0
280
0
281
0
  0
CLASS
  1
DICTIONARYVAR
  2
AcDbDictionaryVar
  3
ObjectDBX Classes
 90
0
 91
0
280
0
281
0
  0
CLASS
  1
CELLSTYLEMAP
  2
AcDbCellStyleMap
  3
ObjectDBX Classes
 90
1152
 91
0
280
0
281
0
  0
CLASS
  1
MENTALRAYRENDERSETTINGS
  2
AcDbMentalRayRenderSettings
  3
SCENEOE
 90
1024
 91
0
280
0
281
0
  0
CLASS
  1
ACDBDETAILVIEWSTYLE
  2
AcDbDetailViewStyle
  3
ObjectDBX Classes
 90
1025
 91
0
280
0
281
0
  0
CLASS
  1
ACDBSECTIONVIEWSTYLE
  2
AcDbSectionViewStyle
  3
ObjectDBX Classes
 90
1025
 91
0
280
0
281
0
  0
CLASS
  1
RASTERVARIABLES
  2
AcDbRasterVariables
  3
ISM
 90
0
 91
0
280
0
281
0
  0
CLASS
  1
LAYOUT
  2
AcDbLayout
  3
ObjectDBX Classes
 90
0
 91
0
280
0
281
0
  0
CLASS
  1
ACDBPLACEHOLDER
  2
AcDbPlaceHolder
  3
ObjectDBX Classes
 90
0
 91
0
280
0
281
0
  0
ENDSEC
  0
SECTION
  2
TABLES
  0
TABLE
  2
VPORT
  5
8
330
0
100
AcDbSymbolTable
 70
1
  0
VPORT
  5
23
330
8
100
AcDbSymbolTableRecord
100
AcDbViewportTableRecord
  2
*Active
 70
0
 10
0.0
 20
0.0
 11
1.0
 21
1.0
 12
0.0
 22
0.0
 13
0.0
 23
0.0
 14
0.5
 24
0.5
 15
0.5
 25
0.5
 16
0.0
 26
0.0
 36
1.0
 17
0.0
 27
0.0
 37
0.0
 40
1000.0
 41
1.34
 42
50.0
 43
0.0
 44
0.0
 50
0.0
 51
0.0
 71
0
 72
1000
 73
1
 74
3
 75
0
 76
0
 77
0
 78
0
281
0
 65
0
146
0.0
  0
ENDTAB
  0
TABLE
  2
LTYPE
  5
2
330
0
100
AcDbSymbolTable
 70
3
  0
LTYPE
  5
24
330
2
100
AcDbSymbolTableRecord
100
AcDbLinetypeTableRecord
  2
ByBlock
 70
0
  3

 72
65
 73
0
 40
0.0
  0
LTYPE
  5
25
330
2
100
AcDbSymbolTableRecord
100
AcDbLinetypeTableRecord
  2
ByLayer
 70
0
  3

 72
65
 73
0
 40
0.0
  0
LTYPE
  5
26
330
2
100
AcDbSymbolTableRecord
100
AcDbLinetypeTableRecord
  2
Continuous
 70
0
  3

 72
65
 73
0
 40
0.0
  0
ENDTAB
  0
TABLE
  2
LAYER
  5
1
330
0
100
AcDbSymbolTable
 70
3
  0
LAYER
  5
27
330
1
100
AcDbSymbolTableRecord
100
AcDbLayerTableRecord
  2
0
 70
0
 62
7
  6
Continuous
370
-3
390
13
347
21
  0
LAYER
  5
28
330
1
100
AcDbSymbolTableRecord
100
AcDbLayerTableRecord
  2
Defpoints
 70
0
 62
7
  6
Continuous
290
0
370
-3
390
13
347
21
  0
LAYER
  5
2F
330
1
100
AcDbSymbolTableRecord
100
AcDbLayerTableRecord
  2
TEXT_OUTLINES
 70
0
 62
1
  6
Continuous
370
-3
390
13
347
21
  0
ENDTAB
  0
TABLE
  2
STYLE
  5
5
330
0
100
AcDbSymbolTable
 70
1
  0
STYLE
  5
29
330
5
100
AcDbSymbolTableRecord
100
AcDbTextStyleTableRecord
  2
Standard
 70
0
 40
0.0
 41
1.0
 50
0.0
 71
0
 42
2.5
  3
txt
  4

  0
ENDTAB
  0
TABLE
  2
VIEW
  5
7
330
0
100
AcDbSymbolTable
 70
0
  0
ENDTAB
  0
TABLE
  2
UCS
  5
6
330
0
100
AcDbSymbolTable
 70
0
  0
ENDTAB
  0
TABLE
  2
APPID
  5
3
330
0
100
AcDbSymbolTable
 70
3
  0
APPID
  5
2A
330
3
100
AcDbSymbolTableRecord
100
AcDbRegAppTableRecord
  2
ACAD
 70
0
  0
APPID
  5
35
330
3
100
AcDbSymbolTableRecord
100
AcDbRegAppTableRecord
  2
HATCHBACKGROUNDCOLOR
 70
0
  0
APPID
  5
36
330
3
100
AcDbSymbolTableRecord
100
AcDbRegAppTableRecord
  2
EZDXF
 70
0
  0
ENDTAB
  0
TABLE
  2
DIMSTYLE
  5
4
330
0
100
AcDbSymbolTable
 70
1
100
AcDbDimStyleTable
  0
DIMSTYLE
105
2B
330
4
100
AcDbSymbolTableRecord
100
AcDbDimStyleTableRecord
  2
Standard
 70
0
 40
1.0
 41
2.5
 42
0.625
 43
3.75
 44
1.25
 45
0.0
 46
0.0
 47
0.0
 48
0.0
 49
2.5
140
2.5
141
2.5
142
0.0
143
0.03937007874
144
1.0
145
0.0
146
1.0
147
0.625
148
0.0
 69
0
 70
0
 71
0
 72
0
 73
0
 74
0
 75
0
 76
0
 77
1
 78
8
 79
3
170
0
171
3
172
1
173
0
174
0
175
0
176
0
177
0
178
0
179
2
271
2
272
2
273
2
274
3
275
0
276
0
277
2
278
44
279
0
280
0
281
0
282
0
283
0
284
8
285
0
286
0
288
0
289
3
290
0
371
-2
372
-2
  0
ENDTAB
  0
TABLE
  2
BLOCK_RECORD
  5
9
330
0
100
AcDbSymbolTable
 70
2
  0
BLOCK_RECORD
  5
17
330
9
100
AcDbSymbolTableRecord
100
AcDbBlockTableRecord
  2
*Model_Space
340
1A
 70
0
280
1
281
0
  0
BLOCK_RECORD
  5
1B
330
9
100
AcDbSymbolTableRecord
100
AcDbBlockTableRecord
  2
*Paper_Space
340
1E
 70
0
280
1
281
0
  0
ENDTAB
  0
ENDSEC
  0
SECTION
  2
BLOCKS
  0
BLOCK
  5
18
330
17
100
AcDbEntity
  8
0
100
AcDbBlockBegin
  2
*Model_Space
 70
0
 10
0.0
 20
0.0
 30
0.0
  3
*Model_Space
  1

  0
ENDBLK
  5
19
330
17
100
AcDbEntity
  8
0
100
AcDbBlockEnd
  0
BLOCK
  5
1C
330
1B
100
AcDbEntity
  8
0
100
AcDbBlockBegin
  2
*Paper_Space
 70
0
 10
0.0
 20
0.0
 30
0.0
  3
*Paper_Space
  1

  0
ENDBLK
  5
1D
330
1B
100
AcDbEntity
  8
0
100
AcDbBlockEnd
  0
ENDSEC
  0
SECTION
  2
ENTITIES
  0
LWPOLYLINE
  5
30
330
17
100
AcDbEntity
  8
TEXT_OUTLINES
100
AcDbPolyline
 90
53
 70
0
 10
5.15625
 20
1.572265625
 10
5.41015625
 20
0.01953125
 10
5.167100694444445
 20
-0.028211805555555556
 10
4.9327256944444455
 20
-0.06727430555555555
 10
4.70703125
 20
-0.09765625
 10
4.490017361111112
 20
-0.1193576388888889
 10
4.281684027777779
 20
-0.1323784722222222
 10
4.08203125
 20
-0.13671875
 10
3.63037109375
 20
-0.1177978515625
 10
3.232421875
 20
-0.06103515625
 10
2.88818359375
 20
0.0335693359375
 10
2.59765625
 20
0.166015625
 10
2.353515625
 20
0.32928466796875
 10
2.1484375
 20
0.516357421875
 10
1.982421875
 20
0.72723388671875
 10
1.85546875
 20
0.9619140625
 10
1.7898220486111114
 20
1.1565483940972223
 10
1.7361111111111114
 20
1.4116753472222223
 10
1.6943359375
 20
1.727294921875
 10
1.6644965277777777
 20
2.1034071180555554
 10
1.6465928819444444
 20
2.5400119357638893
 10
1.640625
 20
3.037109375
 10
1.640625
 20
9.00390625
 10
0.3515625
 20
9.00390625
 10
0.3515625
 20
10.37109375
 10
1.640625
 20
10.37109375
 10
1.640625
 20
12.939453125
 10
3.388671875
 20
13.994140625
 10
3.388671875
 20
10.37109375
 10
5.15625
 20
10.37109375
 10
5.15625
 20
9.00390625
 10
3.388671875
 20
9.00390625
 10
3.388671875
 20
2.939453125
 10
3.39447021484375
 20
2.5970458984375
 10
3.411865234375
 20
2.32177734375
 10
3.44085693359375
 20
2.1136474609375
 10
3.4814453125
 20
1.97265625
 10
3.53515625
 20
1.8707275390625
 10
3.603515625
 20
1.77978515625
 10
3.6865234375
 20
1.6998291015625
 10
3.7841796875
 20
1.630859375
 10
3.8591851128472228
 20
1.5920681423611114
 10
3.944227430555556
 20
1.5603298611111114
 10
4.039306640625
 20
1.53564453125
 10
4.144422743055555
 20
1.5180121527777777
 10
4.259575737847222
 20
1.5074327256944444
 10
4.384765625
 20
1.50390625
 10
4.487575954861112
 20
1.505805121527778
 10
4.6006944444444455
 20
1.5115017361111114
 10
4.72412109375
 20
1.52099609375
 10
4.857855902777779
 20
1.5342881944444446
 10
5.001898871527778
 20
1.5513780381944444
 10
5.15625
 20
1.572265625
  0
LWPOLYLINE
  5
31
330
17
100
AcDbEntity
  8
TEXT_OUTLINES
100
AcDbPolyline
 90
69
 70
0
 10
13.974609375
 20
3.33984375
 10
15.791015625
 20
3.115234375
 10
15.5303955078125
 20
2.3638916015625
 10
15.17822265625
 20
1.70166015625
 10
14.7344970703125
 20
1.1285400390625
 10
14.19921875
 20
0.64453125
 10
13.793945312500002
 20
0.3759765625
 10
13.352864583333336
 20
0.15625000000000003
 10
12.8759765625
 20
-0.0146484375
 10
12.36328125
 20
-0.13671875
 10
11.814778645833332
 20
-0.2099609375
 10
11.23046875
 20
-0.234375
 10
10.15167236328125
 20
-0.14678955078125
 10
9.190673828125
 20
0.115966796875
 10
8.34747314453125
 20
0.55389404296875
 10
7.6220703125
 20
1.1669921875
 10
7.214762369791667
 20
1.6654459635416667
 10
6.881510416666668
 20
2.2265625
 10
6.622314453125
 20
2.850341796875
 10
6.437174479166668
 20
3.536783854166667
 10
6.326090494791667
 20
4.285888671875
 10
6.2890625
 20
5.09765625
 10
6.373291015625
 20
6.3330078125
 10
6.6259765625
 20
7.421875
 10
7.047119140625
 20
8.3642578125
 10
7.63671875
 20
9.16015625
 10
8.108181423611112
 20
9.60177951388889
 10
8.624131944444445
 20
9.96310763888889
 10
9.1845703125
 20
10.244140625
 10
9.789496527777779
 20
10.444878472222221
 10
10.438910590277779
 20
10.565321180555557
 10
11.1328125
 20
10.60546875
 10
12.125244140625
 20
10.5169677734375
 10
13.0224609375
 20
10.25146484375
 10
13.824462890625
 20
9.8089599609375
 10
14.53125
 20
9.189453125
 10
14.934082031250002
 20
8.685438368055555
 10
15.263671875000002
 20
8.11740451388889
 10
15.52001953125
 20
7.4853515625
 10
15.703125
 20
6.789279513888889
 10
15.81298828125
 20
6.029188368055555
 10
15.849609375
 20
5.205078125
 10
15.84933810763889
 20
5.148654513888889
 10
15.848524305555557
 20
5.083550347222222
 10
15.84716796875
 20
5.009765625
 10
15.845269097222223
 20
4.927300347222222
 10
15.842827690972223
 20
4.836154513888889
 10
15.83984375
 20
4.736328125
 10
8.10546875
 20
4.736328125
 10
8.2025146484375
 20
3.931884765625
 10
8.39599609375
 20
3.2275390625
 10
8.6859130859375
 20
2.623291015625
 10
9.072265625
 20
2.119140625
 10
9.373914930555557
 20
1.8416341145833335
 10
9.69943576388889
 20
1.6145833333333337
 10
10.048828125
 20
1.43798828125
 10
10.42209201388889
 20
1.3118489583333335
 10
10.819227430555557
 20
1.2361653645833335
 10
11.240234375
 20
1.2109375
 10
11.7059326171875
 20
1.24267578125
 10
12.13623046875
 20
1.337890625
 10
12.5311279296875
 20
1.49658203125
 10
12.890625
 20
1.71875
 10
13.110622829861112
 20
1.9048394097222223
 10
13.314887152777779
 20
2.1245659722222223
 10
13.50341796875
 20
2.3779296875
 10
13.676215277777779
 20
2.6649305555555554
 10
13.833279079861112
 20
2.9855685763888893
 10
13.974609375
 20
3.33984375
  0
LWPOLYLINE
  5
32
330
17
100
AcDbEntity
  8
TEXT_OUTLINES
100
AcDbPolyline
 90
24
 70
0
 10
8.203125
 20
6.181640625
 10
13.994140625
 20
6.181640625
 10
13.943142361111112
 20
6.599663628472223
 10
13.868272569444445
 20
6.981336805555556
 10
13.76953125
 20
7.32666015625
 10
13.646918402777779
 20
7.635633680555555
 10
13.500434027777779
 20
7.908257378472222
 10
13.330078125
 20
8.14453125
 10
13.036295572916668
 20
8.45486111111111
 10
12.714843750000002
 20
8.708767361111112
 10
12.36572265625
 20
8.90625
 10
11.988932291666668
 20
9.047309027777779
 10
11.58447265625
 20
9.131944444444445
 10
11.15234375
 20
9.16015625
 10
10.57098388671875
 20
9.1094970703125
 10
10.037841796875
 20
8.95751953125
 10
9.55291748046875
 20
8.7042236328125
 10
9.1162109375
 20
8.349609375
 10
8.861626519097223
 20
8.064236111111112
 10
8.648003472222223
 20
7.748480902777779
 10
8.475341796875
 20
7.40234375
 10
8.343641493055555
 20
7.025824652777778
 10
8.25290256076389
 20
6.618923611111111
 10
8.203125
 20
6.181640625
  0
LWPOLYLINE
  5
33
330
17
100
AcDbEntity
  8
TEXT_OUTLINES
100
AcDbPolyline
 90
159
 70
0
 10
17.294921875
 20
3.095703125
 10
19.033203125
 20
3.369140625
 10
19.13909912109375
 20
2.877197265625
 10
19.310302734375
 20
2.4462890625
 10
19.54681396484375
 20
2.076416015625
 10
19.8486328125
 20
1.767578125
 10
20.08639865451389
 20
1.5974934895833335
 10
20.353732638888893
 20
1.4583333333333335
 10
20.650634765625
 20
1.35009765625
 10
20.97710503472222
 20
1.2727864583333335
 10
21.333143446180557
 20
1.2263997395833335
 10
21.71875
 20
1.2109375
 10
22.28515625
 20
1.24176025390625
 10
22.7734375
 20
1.334228515625
 10
23.18359375
 20
1.48834228515625
 10
23.515625
 20
1.7041015625
 10
23.694661458333332
 20
1.873236762152778
 10
23.84114583333334
 20
2.0518663194444446
 10
23.955078125
 20
2.239990234375
 10
24.036458333333336
 20
2.4376085069444446
 10
24.085286458333336
 20
2.6447211371527777
 10
24.1015625
 20
2.861328125
 10
24.08718532986111
 20
3.0528428819444446
 10
24.044053819444446
 20
3.230251736111111
 10
23.97216796875
 20
3.3935546875
 10
23.87152777777778
 20
3.542751736111111
 10
23.74213324652778
 20
3.6778428819444446
 10
23.583984375
 20
3.798828125
 10
23.433702256944446
 20
3.8804796006944446
 10
23.22374131944445
 20
3.969184027777778
 10
22.9541015625
 20
4.06494140625
 10
22.624782986111114
 20
4.167751736111111
 10
22.23578559027778
 20
4.277615017361111
 10
21.787109375
 20
4.39453125
 10
20.89447021484375
 20
4.63043212890625
 10
20.150146484375
 20
4.849853515625
 10
19.55413818359375
 20
5.05279541015625
 10
19.1064453125
 20
5.2392578125
 10
18.7554931640625
 20
5.4345703125
 10
18.44970703125
 20
5.6640625
 10
18.1890869140625
 20
5.927734375
 10
17.9736328125
 20
6.2255859375
 10
17.855767144097225
 20
6.439208984375001
 10
17.759331597222225
 20
6.660156250000001
 10
17.684326171875
 20
6.888427734375
 10
17.630750868055557
 20
7.1240234375
 10
17.59860568576389
 20
7.366943359375
 10
17.587890625
 20
7.6171875
 10
17.60772705078125
 20
7.95745849609375
 10
17.667236328125
 20
8.284912109375
 10
17.76641845703125
 20
8.59954833984375
 10
17.9052734375
 20
8.9013671875
 10
18.01744249131945
 20
9.092746310763891
 10
18.142361111111114
 20
9.273003472222221
 10
18.280029296875
 20
9.442138671875
 10
18.430447048611114
 20
9.600151909722221
 10
18.593614366319446
 20
9.74704318576389
 10
18.76953125
 20
9.8828125
 10
18.99322509765625
 20
10.02838134765625
 10
19.254150390625
 20
10.162353515625
 10
19.55230712890625
 20
10.28472900390625
 10
19.8876953125
 20
10.3955078125
 10
20.126546223958336
 20
10.459662543402779
 10
20.37109375
 20
10.512152777777779
 10
20.621337890625
 20
10.552978515625
 10
20.877278645833336
 20
10.582139756944445
 10
21.138916015625
 20
10.59963650173611
 10
21.40625
 20
10.60546875
 10
21.99798583984375
 20
10.58349609375
 10
22.552490234375
 20
10.517578125
 10
23.06976318359375
 20
10.40771484375
 10
23.5498046875
 20
10.25390625
 10
23.98101806640625
 20
10.06256103515625
 10
24.351806640625
 20
9.840087890625
 10
24.66217041015625
 20
9.58648681640625
 10
24.912109375
 20
9.3017578125
 10
25.05099826388889
 20
9.09030490451389
 10
25.174696180555557
 20
8.856336805555555
 10
25.283203125
 20
8.599853515625
 10
25.37651909722222
 20
8.320855034722223
 10
25.45464409722222
 20
8.019341362847221
 10
25.517578125
 20
7.6953125
 10
23.798828125
 20
7.4609375
 10
23.71246337890625
 20
7.83935546875
 10
23.570556640625
 20
8.173828125
 10
23.37310791015625
 20
8.46435546875
 10
23.1201171875
 20
8.7109375
 10
22.920057508680557
 20
8.848198784722221
 10
22.694227430555557
 20
8.960503472222223
 10
22.442626953125
 20
9.0478515625
 10
22.165256076388893
 20
9.110243055555557
 10
21.86211480034722
 20
9.14767795138889
 10
21.533203125
 20
9.16015625
 10
20.9710693359375
 20
9.1351318359375
 10
20.49560546875
 20
9.06005859375
 10
20.1068115234375
 20
8.9349365234375
 10
19.8046875
 20
8.759765625
 10
19.64653862847222
 20
8.622504340277779
 10
19.51714409722223
 20
8.477647569444446
 10
19.41650390625
 20
8.3251953125
 10
19.344618055555557
 20
8.165147569444445
 10
19.30148654513889
 20
7.997504340277779
 10
19.287109375
 20
7.822265625
 10
19.293077256944446
 20
7.7102322048611125
 10
19.31098090277778
 20
7.601996527777779
 10
19.3408203125
 20
7.49755859375
 10
19.382595486111114
 20
7.396918402777779
 10
19.43630642361111
 20
7.300075954861112
 10
19.501953125
 20
7.20703125
 10
19.580349392361114
 20
7.1153428819444455
 10
19.67230902777778
 20
7.029079861111112
 10
19.77783203125
 20
6.9482421875
 10
19.89691840277778
 20
6.872829861111111
 10
20.02956814236111
 20
6.802842881944445
 10
20.17578125
 20
6.73828125
 10
20.292154947916668
 20
6.698676215277778
 10
20.465494791666668
 20
6.6449652777777795
 10
20.69580078125
 20
6.5771484375
 10
20.983072916666668
 20
6.495225694444445
 10
21.327311197916668
 20
6.399197048611111
 10
21.728515625
 20
6.2890625
 10
22.59063720703125
 20
6.05133056640625
 10
23.311767578125
 20
5.836181640625
 10
23.89190673828125
 20
5.64361572265625
 10
24.3310546875
 20
5.4736328125
 10
24.67987060546875
 20
5.29693603515625
 10
24.989013671875
 20
5.084228515625
 10
25.25848388671875
 20
4.83551025390625
 10
25.48828125
 20
4.55078125
 10
25.61659071180556
 20
4.340820312500001
 10
25.721571180555557
 20
4.114583333333334
 10
25.80322265625
 20
3.8720703125
 10
25.86154513888889
 20
3.61328125
 10
25.89653862847222
 20
3.338216145833333
 10
25.908203125
 20
3.046875
 10
25.87615966796875
 20
2.61383056640625
 10
25.780029296875
 20
2.193603515625
 10
25.61981201171875
 20
1.78619384765625
 10
25.3955078125
 20
1.3916015625
 10
25.11077880859375
 20
1.025390625
 10
24.769287109375
 20
0.703125
 10
24.37103271484375
 20
0.4248046875
 10
23.916015625
 20
0.1904296875
 10
23.58669704861111
 20
0.06062825520833335
 10
23.243272569444446
 20
-0.04557291666666665
 10
22.8857421875
 20
-0.128173828125
 10
22.51410590277778
 20
-0.18717447916666666
 10
22.12836371527778
 20
-0.22257486979166669
 10
21.728515625
 20
-0.234375
 10
20.77789306640625
 20
-0.181884765625
 10
19.947509765625
 20
-0.0244140625
 10
19.23736572265625
 20
0.238037109375
 10
18.6474609375
 20
0.60546875
 10
18.315565321180557
 20
0.907931857638889
 10
18.026258680555557
 20
1.2554253472222223
 10
17.779541015625
 20
1.64794921875
 10
17.57541232638889
 20
2.0855034722222223
 10
17.41387261284722
 20
2.5680881076388893
 10
17.294921875
 20
3.095703125
  0
LWPOLYLINE
  5
34
330
17
100
AcDbEntity
  8
TEXT_OUTLINES
100
AcDbPolyline
 90
53
 70
0
 10
31.8359375
 20
1.572265625
 10
32.08984375
 20
0.01953125
 10
31.84678819444445
 20
-0.028211805555555556
 10
31.61241319444445
 20
-0.06727430555555555
 10
31.38671875
 20
-0.09765625
 10
31.169704861111114
 20
-0.1193576388888889
 10
30.96137152777778
 20
-0.1323784722222222
 10
30.76171875
 20
-0.13671875
 10
30.31005859375
 20
-0.1177978515625
 10
29.912109375
 20
-0.06103515625
 10
29.56787109375
 20
0.0335693359375
 10
29.27734375
 20
0.166015625
 10
29.033203125
 20
0.32928466796875
 10
28.828125
 20
0.516357421875
 10
28.662109375
 20
0.72723388671875
 10
28.53515625
 20
0.9619140625
 10
28.46950954861111
 20
1.1565483940972223
 10
28.415798611111118
 20
1.4116753472222223
 10
28.3740234375
 20
1.727294921875
 10
28.34418402777778
 20
2.1034071180555554
 10
28.326280381944443
 20
2.5400119357638893
 10
28.3203125
 20
3.037109375
 10
28.3203125
 20
9.00390625
 10
27.03125
 20
9.00390625
 10
27.03125
 20
10.37109375
 10
28.3203125
 20
10.37109375
 10
28.3203125
 20
12.939453125
 10
30.068359375
 20
13.994140625
 10
30.068359375
 20
10.37109375
 10
31.8359375
 20
10.37109375
 10
31.8359375
 20
9.00390625
 10
30.068359375
 20
9.00390625
 10
30.068359375
 20
2.939453125
 10
30.07415771484375
 20
2.5970458984375
 10
30.091552734375
 20
2.32177734375
 10
30.12054443359375
 20
2.1136474609375
 10
30.1611328125
 20
1.97265625
 10
30.21484375
 20
1.8707275390625
 10
30.283203125
 20
1.77978515625
 10
30.3662109375
 20
1.6998291015625
 10
30.4638671875
 20
1.630859375
 10
30.538872612847225
 20
1.5920681423611114
 10
30.62391493055556
 20
1.5603298611111114
 10
30.718994140625
 20
1.53564453125
 10
30.824110243055557
 20
1.5180121527777777
 10
30.93926323784722
 20
1.5074327256944444
 10
31.064453125
 20
1.50390625
 10
31.167263454861114
 20
1.505805121527778
 10
31.280381944444446
 20
1.5115017361111114
 10
31.40380859375
 20
1.52099609375
 10
31.53754340277778
 20
1.5342881944444446
 10
31.68158637152778
 20
1.5513780381944444
 10
31.8359375
 20
1.572265625
  0
ENDSEC
  0
SECTION
  2
OBJECTS
  0
DICTIONARY
  5
A
330
0
100
AcDbDictionary
281
1
  3
ACAD_COLOR
350
B
  3
ACAD_GROUP
350
C
  3
ACAD_LAYOUT
350
D
  3
ACAD_MATERIAL
350
E
  3
ACAD_MLEADERSTYLE
350
F
  3
ACAD_MLINESTYLE
350
10
  3
ACAD_PLOTSETTINGS
350
11
  3
ACAD_PLOTSTYLENAME
350
12
  3
ACAD_SCALELIST
350
14
  3
ACAD_TABLESTYLE
350
15
  3
ACAD_VISUALSTYLE
350
16
  3
EZDXF_META
350
2D
  0
DICTIONARY
  5
B
330
A
100
AcDbDictionary
281
1
  0
DICTIONARY
  5
C
330
A
100
AcDbDictionary
281
1
  0
DICTIONARY
  5
D
330
A
100
AcDbDictionary
281
1
  3
Model
350
1A
  3
Layout1
350
1E
  0
DICTIONARY
  5
E
330
A
100
AcDbDictionary
281
1
  3
ByBlock
350
1F
  3
ByLayer
350
20
  3
Global
350
21
  0
DICTIONARY
  5
F
330
A
100
AcDbDictionary
281
1
  3
Standard
350
2C
  0
DICTIONARY
  5
10
330
A
100
AcDbDictionary
281
1
  3
Standard
350
22
  0
DICTIONARY
  5
11
330
A
100
AcDbDictionary
281
1
  0
ACDBDICTIONARYWDFLT
  5
12
330
A
100
AcDbDictionary
281
1
  3
Normal
350
13
100
AcDbDictionaryWithDefault
340
13
  0
ACDBPLACEHOLDER
  5
13
330
12
  0
DICTIONARY
  5
14
330
A
100
AcDbDictionary
281
1
  0
DICTIONARY
  5
15
330
A
100
AcDbDictionary
281
1
  0
DICTIONARY
  5
16
330
A
100
AcDbDictionary
281
1
  0
LAYOUT
  5
1A
330
D
100
AcDbPlotSettings
  1

  4
A3
  6

 40
7.5
 41
20.0
 42
7.5
 43
20.0
 44
420.0
 45
297.0
 46
0.0
 47
0.0
 48
0.0
 49
0.0
140
0.0
141
0.0
142
1.0
143
1.0
 70
1024
 72
1
 73
0
 74
5
  7

 75
16
 76
0
 77
2
 78
300
147
1.0
148
0.0
149
0.0
100
AcDbLayout
  1
Model
 70
1
 71
0
 10
0.0
 20
0.0
 11
420.0
 21
297.0
 12
0.0
 22
0.0
 32
0.0
 14
1e+20
 24
1e+20
 34
1e+20
 15
-1e+20
 25
-1e+20
 35
-1e+20
146
0.0
 13
0.0
 23
0.0
 33
0.0
 16
1.0
 26
0.0
 36
0.0
 17
0.0
 27
1.0
 37
0.0
 76
1
330
17
  0
LAYOUT
  5
1E
330
D
100
AcDbPlotSettings
  1

  4
A3
  6

 40
7.5
 41
20.0
 42
7.5
 43
20.0
 44
420.0
 45
297.0
 46
0.0
 47
0.0
 48
0.0
 49
0.0
140
0.0
141
0.0
142
1.0
143
1.0
 70
0
 72
1
 73
0
 74
5
  7

 75
16
 76
0
 77
2
 78
300
147
1.0
148
0.0
149
0.0
100
AcDbLayout
  1
Layout1
 70
1
 71
1
 10
0.0
 20
0.0
 11
420.0
 21
297.0
 12
0.0
 22
0.0
 32
0.0
 14
1e+20
 24
1e+20
 34
1e+20
 15
-1e+20
 25
-1e+20
 35
-1e+20
146
0.0
 13
0.0
 23
0.0
 33
0.0
 16
1.0
 26
0.0
 36
0.0
 17
0.0
 27
1.0
 37
0.0
 76
1
330
1B
  0
MATERIAL
  5
1F
102
{ACAD_REACTORS
330
E
102
}
330
E
100
AcDbMaterial
  1
ByBlock
  2

 70
0
 40
1.0
 71
1
 41
1.0
 91
-1023410177
 42
1.0
 72
1
  3

 73
1
 74
1
 75
1
 44
0.5
 73
0
 45
1.0
 46
1.0
 77
1
  4

 78
1
 79
1
170
1
 48
1.0
171
1
  6

172
1
173
1
174
1
140
1.0
141
1.0
175
1
  7

176
1
177
1
178
1
143
1.0
179
1
  8

270
1
271
1
272
1
145
1.0
146
1.0
273
1
  9

274
1
275
1
276
1
 42
1.0
 72
1
  3

 73
1
 74
1
 75
1
 94
63
  0
MATERIAL
  5
20
102
{ACAD_REACTORS
330
E
102
}
330
E
100
AcDbMaterial
  1
ByLayer
  2

 70
0
 40
1.0
 71
1
 41
1.0
 91
-1023410177
 42
1.0
 72
1
  3

 73
1
 74
1
 75
1
 44
0.5
 73
0
 45
1.0
 46
1.0
 77
1
  4

 78
1
 79
1
170
1
 48
1.0
171
1
  6

172
1
173
1
174
1
140
1.0
141
1.0
175
1
  7

176
1
177
1
178
1
143
1.0
179
1
  8

270
1
271
1
272
1
145
1.0
146
1.0
273
1
  9

274
1
275
1
276
1
 42
1.0
 72
1
  3

 73
1
 74
1
 75
1
 94
63
  0
MATERIAL
  5
21
102
{ACAD_REACTORS
330
E
102
}
330
E
100
AcDbMaterial
  1
Global
  2

 70
0
 40
1.0
 71
1
 41
1.0
 91
-1023410177
 42
1.0
 72
1
  3

 73
1
 74
1
 75
1
 44
0.5
 73
0
 45
1.0
 46
1.0
 77
1
  4

 78
1
 79
1
170
1
 48
1.0
171
1
  6

172
1
173
1
174
1
140
1.0
141
1.0
175
1
  7

176
1
177
1
178
1
143
1.0
179
1
  8

270
1
271
1
272
1
145
1.0
146
1.0
273
1
  9

274
1
275
1
276
1
 42
1.0
 72
1
  3

 73
1
 74
1
 75
1
 94
63
  0
MLINESTYLE
  5
22
102
{ACAD_REACTORS
330
10
102
}
330
10
100
AcDbMlineStyle
  2
Standard
 70
0
  3

 62
256
 51
90.0
 52
90.0
 71
2
 49
0.5
 62
256
  6
BYLAYER
 49
-0.5
 62
256
  6
BYLAYER
  0
MLEADERSTYLE
  5
2C
102
{ACAD_REACTORS
330
F
102
}
330
F
100
AcDbMLeaderStyle
179
2
170
2
171
1
172
0
 90
2
 40
0.0
 41
0.0
173
1
 91
-1056964608
 92
-2
290
1
 42
2.0
291
1
 43
8.0
  3
Standard
 44
4.0
300

342
29
174
1
175
1
176
0
178
1
 93
-1056964608
 45
4.0
292
0
297
0
 46
4.0
 94
-1056964608
 47
1.0
 49
1.0
140
1.0
294
1
141
0.0
177
0
142
1.0
295
0
296
0
143
3.75
271
0
272
9
273
9
  0
DICTIONARY
  5
2D
330
A
100
AcDbDictionary
280
1
281
1
  3
CREATED_BY_EZDXF
350
2E
  3
WRITTEN_BY_EZDXF
350
37
  0
DICTIONARYVAR
  5
2E
330
2D
100
DictionaryVariables
280
0
  1
1.4.2 @ 2025-09-18T03:57:07.275349+00:00
  0
DICTIONARYVAR
  5
37
330
2D
100
DictionaryVariables
280
0
  1
1.4.2 @ 2025-09-18T03:57:07.297466+00:00
  0
ENDSEC
  0
EOF
